<svg xmlns="http://www.w3.org/2000/svg" width="177.789" height="56.383" viewBox="0 0 177.789 56.383"><defs><style>.a{fill:#ffba00;}</style></defs><g transform="translate(-525.666 -369.748)"><g transform="translate(530.215 369.748)"><path d="M555.388,511.095a.917.917,0,0,0-.037.246.659.659,0,0,0,.141.418.672.672,0,0,0,.588.284h10.907l-.123.475a3.153,3.153,0,0,1-1.143,1.679,2.961,2.961,0,0,1-1.863.692H553.425a1.721,1.721,0,0,1-1.488-.692,1.682,1.682,0,0,1-.342-1.034,2.4,2.4,0,0,1,.1-.644l2.285-8.536a3.153,3.153,0,0,1,1.143-1.678,2.959,2.959,0,0,1,1.864-.693h10.432a1.748,1.748,0,0,1,1.5.693,1.707,1.707,0,0,1,.332,1.033,2.4,2.4,0,0,1-.095.645l-.123.473H558.12a1.189,1.189,0,0,0-.744.281,1.254,1.254,0,0,0-.46.669Z" transform="translate(-551.595 -478.475)"/><path d="M650.538,512.987h-5.216l-.19-2.845h4.742l-1.214-5.218-7.643,9.96h-3.794l10.2-13.279h3.32a1.094,1.094,0,0,1,1.166.948l2.865,12.331h-3.794Z" transform="translate(-622.2 -478.471)"/><path d="M759.31,507.77a4.322,4.322,0,0,1-1.621,1.9,2.779,2.779,0,0,1,.645,1.565,1.459,1.459,0,0,1-.038.331l-.891,3.32h-3.319l.759-2.846a.9.9,0,0,0,.038-.246.731.731,0,0,0-.132-.428.707.707,0,0,0-.6-.274h-7.113l-.18-2.846h8.061a1.168,1.168,0,0,0,.74-.28,1.26,1.26,0,0,0,.455-.669l.513-1.9a.9.9,0,0,0,.038-.247.728.728,0,0,0-.133-.427.707.707,0,0,0-.6-.276H747.4l-2.8,10.434h-3.32l3.556-13.279h13.752a1.748,1.748,0,0,1,1.5.693,1.7,1.7,0,0,1,.332,1.033,2.4,2.4,0,0,1-.095.645Z" transform="translate(-708 -478.471)"/><path d="M850.97,511.095a.9.9,0,0,0-.038.246.659.659,0,0,0,.142.418.67.67,0,0,0,.588.284H862.57l-.123.475A3.153,3.153,0,0,1,861.3,514.2a2.961,2.961,0,0,1-1.863.692H849.007a1.722,1.722,0,0,1-1.489-.692,1.682,1.682,0,0,1-.342-1.034,2.378,2.378,0,0,1,.1-.644l2.285-8.536A3.154,3.154,0,0,1,850.7,502.3a2.958,2.958,0,0,1,1.864-.693H863a1.748,1.748,0,0,1,1.5.693,1.708,1.708,0,0,1,.332,1.033,2.386,2.386,0,0,1-.1.645l-.123.473H853.7a1.19,1.19,0,0,0-.744.281,1.255,1.255,0,0,0-.46.669Z" transform="translate(-795.316 -478.475)"/><path d="M946.12,512.987H940.9l-.19-2.845h4.742l-1.214-5.218-7.643,9.96H932.8L943,501.605h3.32a1.094,1.094,0,0,1,1.167.948l2.864,12.331h-3.794Z" transform="translate(-865.921 -478.471)"/><path d="M1054.892,507.77a4.319,4.319,0,0,1-1.622,1.9,2.776,2.776,0,0,1,.645,1.565,1.465,1.465,0,0,1-.038.331l-.892,3.32h-3.319l.759-2.846a.916.916,0,0,0,.037-.246.728.728,0,0,0-.132-.428.706.706,0,0,0-.6-.274h-7.113l-.18-2.846h8.061a1.169,1.169,0,0,0,.74-.28,1.256,1.256,0,0,0,.455-.669l.513-1.9a.911.911,0,0,0,.037-.247.727.727,0,0,0-.133-.427.7.7,0,0,0-.6-.276h-8.537l-2.8,10.434h-3.32l3.557-13.279h13.752a1.748,1.748,0,0,1,1.5.693,1.709,1.709,0,0,1,.332,1.033,2.417,2.417,0,0,1-.1.645Z" transform="translate(-951.723 -478.471)"/><path class="a" d="M1146.129,512.987h-5.216l-.189-2.845h4.742l-1.214-5.218-7.644,9.96h-3.794l10.2-13.279h3.318a1.1,1.1,0,0,1,1.167.948l2.863,12.331h-3.793Z" transform="translate(-1030.839 -478.471)"/><path class="a" d="M1252.205,501.605h3.318l-2.921,10.908a3.153,3.153,0,0,1-1.143,1.679,2.965,2.965,0,0,1-1.863.692h-11.381a1.724,1.724,0,0,1-1.489-.692,1.677,1.677,0,0,1-.342-1.035,2.424,2.424,0,0,1,.094-.644l2.922-10.908h3.319l-2.541,9.486a.918.918,0,0,0-.039.246.655.655,0,0,0,.143.418.668.668,0,0,0,.588.284h7.586a1.188,1.188,0,0,0,.745-.28,1.258,1.258,0,0,0,.46-.668Z" transform="translate(-1116.239 -478.471)"/><path class="a" d="M1348.824,501.605h16.123l-.76,2.845h-16.123Zm5.51,3.319,3.073.949-2.42,9.01h-3.319Z" transform="translate(-1208.324 -478.471)"/><path class="a" d="M1434.82,514.884a1.722,1.722,0,0,1-1.489-.692,1.684,1.684,0,0,1-.341-1.034,2.367,2.367,0,0,1,.1-.644l2.286-8.536a3.144,3.144,0,0,1,1.142-1.678,2.961,2.961,0,0,1,1.864-.693h11.38a1.751,1.751,0,0,1,1.5.693,1.708,1.708,0,0,1,.331,1.033,2.441,2.441,0,0,1-.094.645l-2.286,8.536a3.159,3.159,0,0,1-1.144,1.679,2.961,2.961,0,0,1-1.863.692Zm4.7-10.434a1.191,1.191,0,0,0-.745.281,1.26,1.26,0,0,0-.46.669l-1.526,5.691a.882.882,0,0,0-.038.246.645.645,0,0,0,.143.418.668.668,0,0,0,.586.284h7.588a1.19,1.19,0,0,0,.745-.28,1.254,1.254,0,0,0,.46-.668l1.527-5.691a.884.884,0,0,0,.038-.247.723.723,0,0,0-.133-.427.7.7,0,0,0-.6-.276Z" transform="translate(-1278.35 -478.471)"/><path d="M675.472,389.635a11.225,11.225,0,0,0-1.119-.989,19.345,19.345,0,0,0-2.5-1.629,34.443,34.443,0,0,0-5.48-2.359c-.942-.312-1.89-.615-2.848-.876s-1.922-.5-2.89-.715-1.938-.418-2.912-.6-1.953-.329-2.932-.479c-1.958-.288-3.924-.514-5.885-.7s-3.926-.318-5.887-.448l-1.132-.07q-1.312-1.171-2.7-2.268a42.971,42.971,0,0,0-9.842-5.826,31.479,31.479,0,0,0-5.52-1.733c-.951-.2-1.9-.356-2.881-.468a24.6,24.6,0,0,0-2.932-.105,50.725,50.725,0,0,0-5.729.5c-1.886.26-3.756.574-5.619.9-3.719.692-7.406,1.456-11.1,2.158-.621.123-1.241.24-1.862.358a23.741,23.741,0,0,1-7.128-4.547,19.822,19.822,0,0,0,4.436,3.9c.472.312.957.6,1.448.883q-3.984.727-7.983,1.279-2.782.366-5.576.558a53,53,0,0,1-5.591.113,28.6,28.6,0,0,1-10.918-2.248,21.289,21.289,0,0,0,5.235,2.193,33.66,33.66,0,0,0,5.619,1.016,61.539,61.539,0,0,0,11.4-.114c3.523-.308,7.011-.855,10.482-1.436.383.175.767.346,1.155.509a49.467,49.467,0,0,0,5.618,1.946q2.857.824,5.769,1.4c1.938.394,3.885.723,5.837,1.018s3.911.517,5.868.733c3.916.429,7.839.727,11.757.976l5.874.346,5.863.317c.293.017.585.037.878.055,1.218,1.038,2.4,2.125,3.529,3.266a40.087,40.087,0,0,0-2.833-3.224c1.425.089,2.848.185,4.268.3,1.944.139,3.877.318,5.808.524.964.111,1.928.227,2.888.361s1.924.259,2.879.418,1.908.329,2.857.525,1.894.4,2.834.626a41.467,41.467,0,0,1,5.519,1.766,21.228,21.228,0,0,1,2.607,1.267,8.656,8.656,0,0,1,2.28,1.789,5.256,5.256,0,0,0-.913-1.166m-38.333-9.16-5.866-.322c-1.954-.108-3.906-.216-5.854-.346s-3.9-.251-5.84-.414-3.883-.35-5.818-.567-3.865-.456-5.784-.764-3.829-.657-5.723-1.082q-2.634-.593-5.2-1.429c3.333-.6,6.65-1.258,9.963-1.853a82.389,82.389,0,0,1,11.054-1.493,22.745,22.745,0,0,1,2.716.031c.894.081,1.81.205,2.706.374a33.909,33.909,0,0,1,5.305,1.472,46.142,46.142,0,0,1,9.834,5.184q1.011.692,1.993,1.426Z" transform="translate(-560.499 -369.748)"/><path d="M592.853,432.723l-.6-.21-.606-.177c-.406-.113-.808-.24-1.218-.339l-1.237-.271a28.376,28.376,0,0,0-5.034-.524,29.384,29.384,0,0,0-14.475,3.669,21.923,21.923,0,0,0-4.064,2.834,45.357,45.357,0,0,1,4.53-1.789,47.67,47.67,0,0,1,4.608-1.319,39.679,39.679,0,0,1,9.373-1.053l1.176.029c.391.017.781.057,1.172.082s.78.065,1.17.111.781.079,1.167.149a38.549,38.549,0,0,1,4.619.984c3.045.875,7.655,4.066,10.6,5.535-2.388-2.269-6.9-6-10.005-7.277-.392-.151-.788-.289-1.182-.435" transform="translate(-563.163 -420.42)"/><path d="M1119.6,464.343s.305,2.284,4.282,3.525,5.746-.006,9.118.674c0,0-1.25-2.256-13.4-4.2" transform="translate(-1019.94 -447.746)"/></g><g transform="translate(640.414 410.536)"><path d="M1179.691,613.125q1.285-.638,2.26-1.166t1.675-.989a8.836,8.836,0,0,0,1.153-.881,4.591,4.591,0,0,0,.727-.838l-5.139.134.253-1.811,5.414-.084.37-2.1h-5.046l.318-1.81h7.127l-.68,3.856a8.522,8.522,0,0,1-.631,2.1,5.788,5.788,0,0,1-1.267,1.711,12.912,12.912,0,0,1-2.246,1.66q-1.4.846-3.569,1.937Zm12.89-5.3h2.147l-.325,1.845h-2.147l-1.436,8.149h-2.13l2.749-15.6h2.13Z" transform="translate(-1179.691 -602.225)"/><path d="M1266.661,613.125q1.285-.638,2.26-1.166t1.675-.989a8.836,8.836,0,0,0,1.153-.881,4.6,4.6,0,0,0,.727-.838l-5.139.134.252-1.811,5.415-.084.369-2.1h-5.046l.319-1.81h7.127l-.68,3.856a8.443,8.443,0,0,1-.632,2.1,5.769,5.769,0,0,1-1.266,1.711,12.923,12.923,0,0,1-2.246,1.66q-1.4.846-3.569,1.937Zm12.891-5.3h2.147l-.326,1.845h-2.147l-1.437,8.149h-2.13l2.75-15.6h2.13Z" transform="translate(-1251.402 -602.225)"/><path d="M1354.9,617.536l.438-2.482a5.591,5.591,0,0,1-1.647-.453,3.9,3.9,0,0,1-1.21-.838,2.89,2.89,0,0,1-.685-1.157,3.029,3.029,0,0,1-.065-1.442l.136-.771a3.853,3.853,0,0,1,.687-1.618,4.9,4.9,0,0,1,1.345-1.25,6.672,6.672,0,0,1,1.843-.8,8.1,8.1,0,0,1,2.172-.285,7.024,7.024,0,0,1,2.07.285,4.381,4.381,0,0,1,1.553.8,3.035,3.035,0,0,1,.9,1.25,2.979,2.979,0,0,1,.126,1.618l-.136.771a3.756,3.756,0,0,1-.573,1.442,4.8,4.8,0,0,1-1.092,1.157,6.286,6.286,0,0,1-1.507.838,7.253,7.253,0,0,1-1.807.453l-.438,2.482h6.087l-.316,1.794h-14.286l.316-1.794Zm2.693-9.273a5.2,5.2,0,0,0-1.294.159,4.232,4.232,0,0,0-1.12.453,3,3,0,0,0-.83.712,2.031,2.031,0,0,0-.422.923l-.095.537a1.561,1.561,0,0,0,.1.922,1.8,1.8,0,0,0,.579.713,2.892,2.892,0,0,0,.96.453,4.561,4.561,0,0,0,1.238.159,5.214,5.214,0,0,0,1.294-.159,4.246,4.246,0,0,0,1.119-.453,2.963,2.963,0,0,0,.83-.713,2.012,2.012,0,0,0,.423-.922l.095-.537a1.561,1.561,0,0,0-.1-.923,1.8,1.8,0,0,0-.579-.712,2.892,2.892,0,0,0-.96-.453A4.569,4.569,0,0,0,1357.589,608.262Z" transform="translate(-1318.878 -605.696)"/><path d="M1441.863,619.282l.4-2.264h-4.242l1.5-8.485h10.447l-.313,1.778H1441.3l-.278,1.577h8.216l-.313,1.777h-8.216l-.277,1.576h8.518l-.314,1.778h-4.259l-.4,2.264h6.087l-.313,1.778h-14.286l.313-1.778Z" transform="translate(-1390.588 -607.426)"/></g><rect width="108.099" height="0.657" transform="translate(530.925 411.972)"/><rect width="108.099" height="0.657" transform="translate(530.048 414.163)"/><rect width="108.099" height="0.657" transform="translate(529.172 416.355)"/><rect width="108.099" height="0.657" transform="translate(528.295 418.547)"/><rect width="108.099" height="0.657" transform="translate(527.419 420.738)"/><rect width="108.099" height="0.657" transform="translate(526.542 422.93)"/><rect width="108.099" height="0.657" transform="translate(525.666 425.121)"/></g></svg>