<svg xmlns="http://www.w3.org/2000/svg" width="74.079" height="61" viewBox="0 0 74.079 61"><defs><style>.a,.b,.d{fill:none;stroke-width:3px;}.a{stroke:#fff;}.a,.b{stroke-linecap:round;stroke-linejoin:round;}.b,.d{stroke:#ff9d00;}.c{fill:#ff9d00;}.d{stroke-miterlimit:10;}</style></defs><g transform="translate(-4383.023 -3892.778)"><path class="a" d="M4394.611,3942.2v5.035a5.044,5.044,0,0,1-5.044,5.044h0a5.044,5.044,0,0,1-5.044-5.044v-9.358"/><path class="a" d="M4404.878,3942.2h-14.591a5.764,5.764,0,0,1-5.764-5.764v-12.182a5.764,5.764,0,0,1,1.225-3.553l7.422-8.474h53.786l7.421,8.474a5.764,5.764,0,0,1,1.225,3.553v12.182a5.764,5.764,0,0,1-5.764,5.764h-15.132"/><path class="a" d="M4455.6,3937.876v9.358a5.044,5.044,0,0,1-5.044,5.044h0a5.044,5.044,0,0,1-5.044-5.044V3942.2"/><path class="a" d="M4393.17,3912.226l7.163-14.592a6,6,0,0,1,5.386-3.356h28.687a6,6,0,0,1,5.386,3.356l7.164,14.592"/><rect class="b" width="29.288" height="9.695" transform="translate(4405.418 3936.435)"/><line class="a" x1="8.07" y1="4" transform="translate(4385.76 3908.226)"/><line class="a" y1="4" x2="8.07" transform="translate(4446.655 3908.226)"/><path class="c" d="M4403.188,3925.327a4.035,4.035,0,1,1-4.035-4.035A4.036,4.036,0,0,1,4403.188,3925.327Z"/><path class="c" d="M4445.008,3925.327a4.035,4.035,0,1,1-4.036-4.035A4.036,4.036,0,0,1,4445.008,3925.327Z"/><path class="d" d="M4427.937,3929.17h-15.749a3.5,3.5,0,0,1-3.322-2.394l-1.321-3.964a1.009,1.009,0,0,1,.957-1.328h23.121a1.009,1.009,0,0,1,.957,1.328l-1.321,3.964A3.5,3.5,0,0,1,4427.937,3929.17Z"/></g></svg>