<svg xmlns="http://www.w3.org/2000/svg" width="20" height="23" viewBox="0 0 20 23"><defs><style>.a{fill:#ddd;}</style></defs><path class="a" d="M2557.343,1706H2557v-2.427a6.581,6.581,0,0,0-6.573-6.573h-.854a6.581,6.581,0,0,0-6.573,6.573V1706h-.343a2.665,2.665,0,0,0-2.657,2.657v8.686a2.665,2.665,0,0,0,2.657,2.657h14.686a2.665,2.665,0,0,0,2.657-2.657v-8.686A2.665,2.665,0,0,0,2557.343,1706Zm-6.343,8.816V1717h-2v-2.184a3,3,0,1,1,2,0Zm4-8.816h-10v-2.427a4.579,4.579,0,0,1,4.573-4.573h.854a4.579,4.579,0,0,1,4.573,4.573Z" transform="translate(-2540 -1697)"/></svg>