<svg xmlns="http://www.w3.org/2000/svg" width="63" height="69" viewBox="0 0 63 69"><defs><style>.a,.b{fill:none;stroke-linecap:round;stroke-linejoin:round;stroke-width:3px;}.a{stroke:#ff8a00;}.b{stroke:#fff;}</style></defs><g transform="translate(-4786.844 -3879.127)"><line class="a" x2="42" transform="translate(4800.344 3931.705)"/><path class="b" d="M4842.344,3880.627V3895.6a15,15,0,0,1-7.972,13.251l-4.783,2.537a3,3,0,0,0,.1,4.836l3.993,1.862a15,15,0,0,1,8.664,13.595v14.942"/><path class="b" d="M4800.344,3946.627v-14.922a15,15,0,0,1,8.688-13.608l4.061-1.884a3,3,0,0,0,.1-4.8l-5.051-2.767a15,15,0,0,1-7.794-13.156v-14.863"/><line class="b" x2="54" transform="translate(4794.344 3880.627)"/><line class="b" x1="54" transform="translate(4794.344 3946.627)"/><line class="a" x1="24" transform="translate(4788.344 3889.627)"/><line class="a" x1="18" transform="translate(4794.344 3901.627)"/></g></svg>